<svg width="18" height="18" viewBox="0 0 18 18" fill="none" xmlns="http://www.w3.org/2000/svg">
<g id="icon">
<path id="Vector" d="M16.5 2.25H1.5C0.675 2.25 0 2.925 0 3.75V14.25C0 15.075 0.675 15.75 1.5 15.75H16.5C17.325 15.75 17.9925 15.075 17.9925 14.25L18 3.75C18 2.925 17.325 2.25 16.5 2.25ZM16.5 14.25H1.5V3.75H16.5V14.25ZM15.75 4.5H10.5V8.25H15.75V4.5ZM15 6L13.125 7.3125L11.25 6V5.25L13.125 6.5625L15 5.25V6ZM6.75 9C7.9875 9 9 7.9875 9 6.75C9 5.5125 7.9875 4.5 6.75 4.5C5.5125 4.5 4.5 5.5125 4.5 6.75C4.5 7.9875 5.5125 9 6.75 9ZM6.75 6C7.1625 6 7.5 6.3375 7.5 6.75C7.5 7.1625 7.1625 7.5 6.75 7.5C6.3375 7.5 6 7.1625 6 6.75C6 6.3375 6.3375 6 6.75 6ZM11.25 12.4425C11.25 10.5675 8.2725 9.7575 6.75 9.7575C5.2275 9.7575 2.25 10.5675 2.25 12.4425V13.5H11.25V12.4425ZM4.11 12C4.665 11.625 5.775 11.25 6.75 11.25C7.725 11.25 8.8275 11.6175 9.39 12H4.11Z" fill="#6750A4"/>
</g>
</svg>
