<svg width="18" height="18" viewBox="0 0 18 18" fill="none" xmlns="http://www.w3.org/2000/svg">
<g id="icon">
<path id="Vector" d="M13.095 3.75C13.05 4.4175 12.9375 5.07 12.7575 5.6925L13.6575 6.5925C13.965 5.6925 14.16 4.74 14.2275 3.75H13.095ZM5.7 12.765C5.0625 12.945 4.41 13.0575 3.75 13.1025V14.22C4.74 14.1525 5.6925 13.9575 6.6 13.6575L5.7 12.765ZM12.375 2.25H15C15.4125 2.25 15.75 2.5875 15.75 3C15.75 10.0425 10.0425 15.75 3 15.75C2.5875 15.75 2.25 15.4125 2.25 15V12.3825C2.25 11.97 2.5875 11.6325 3 11.6325C3.93 11.6325 4.8375 11.4825 5.6775 11.205C5.7525 11.175 5.835 11.1675 5.91 11.1675C6.105 11.1675 6.2925 11.2425 6.4425 11.385L8.0925 13.035C10.215 11.9475 11.955 10.215 13.035 8.0925L11.385 6.4425C11.175 6.2325 11.115 5.94 11.1975 5.6775C11.475 4.8375 11.625 3.9375 11.625 3C11.625 2.5875 11.9625 2.25 12.375 2.25Z" fill="#6750A4"/>
</g>
</svg>
